<?xml version="1.0" encoding="utf-8"?>
<!-- Generator: Adobe Illustrator 27.0.0, SVG Export Plug-In . SVG Version: 6.00 Build 0)  -->
<svg version="1.1" id="Layer_1" xmlns="http://www.w3.org/2000/svg" xmlns:xlink="http://www.w3.org/1999/xlink" x="0px" y="0px"
	 viewBox="0 0 256 256" style="enable-background:new 0 0 256 256;" xml:space="preserve">
<style type="text/css">
	.st0{fill:#4B8BC9;}
	.st1{fill:#FFFFFF;}
</style>
<g>
	<path class="st0" d="M254.52,90.97l-9.41-49.72l-90.12,42.97L130.61,9.21l-30.48,93.83H1.48l79.81,57.99l-4.7,14.47l-45.26,21.57
		l9.43,49.72l14.98-7.14l46.52-22.19l20.37-9.72l13.85-6.61l48.9-23.32l8.3-3.95l18.66-8.9l-14.07-17.26l-17.53-21.54l48.46-23.12
		L254.52,90.97z M192.37,152.01l8.43,10.34l-17.68,8.43L58.86,230.06l-12.67,6.04l-6.61-34.85l33.9-16.17l105.01-50.08
		L192.37,152.01z M107.36,153.05l-22.28-27.36l72.2-34.43l82.4-39.31l6.61,34.83l-34.08,16.26L107.36,153.05z"/>
	<polygon class="st1" points="200.79,162.36 183.12,170.79 58.86,230.05 46.19,236.1 39.58,201.25 73.48,185.09 178.5,135 
		192.36,152.01 	"/>
	<polygon class="st1" points="246.29,86.79 212.2,103.04 107.37,153.05 85.08,125.69 157.28,91.25 239.69,51.95 	"/>
</g>
</svg>
