<?xml version="1.0" encoding="utf-8"?>
<!-- Generator: Adobe Illustrator 27.0.0, SVG Export Plug-In . SVG Version: 6.00 Build 0)  -->
<svg version="1.1" id="Layer_1" xmlns="http://www.w3.org/2000/svg" xmlns:xlink="http://www.w3.org/1999/xlink" x="0px" y="0px"
	 viewBox="0 0 1024 1024" style="enable-background:new 0 0 1024 1024;" xml:space="preserve">
<style type="text/css">
	.st0{fill:#4B8BC9;}
	.st1{fill:#FFFFFF;}
</style>
<g>
	<path class="st0" d="M969.29,378.16l-34.02-179.7L609.55,353.75l-88.11-271.1L411.29,421.79H54.71l288.47,209.58l-16.98,52.31
		l-163.58,77.97l34.09,179.7l54.15-25.79l168.12-80.21l73.63-35.14l50.07-23.89l176.74-84.29l30.01-14.28l67.45-32.18l-50.86-62.38
		l-63.37-77.84l175.16-83.57L969.29,378.16z M744.64,598.79l30.47,37.38l-63.89,30.47L262.12,880.88l-45.8,21.85l-23.89-125.94
		l122.52-58.43L694.5,537.33L744.64,598.79z M437.41,602.54l-80.54-98.9l260.97-124.43l297.82-142.07l23.89,125.88l-123.18,58.76
		L437.41,602.54z"/>
	<polygon class="st1" points="775.08,636.18 711.22,666.66 262.12,880.85 216.33,902.71 192.43,776.76 314.94,718.34 694.51,537.31 
		744.61,598.79 	"/>
	<polygon class="st1" points="939.52,363.04 816.34,421.8 437.44,602.53 356.87,503.66 617.83,379.19 915.66,237.13 	"/>
</g>
</svg>
