<?xml version="1.0" encoding="utf-8"?>
<!-- Generator: Adobe Illustrator 27.0.0, SVG Export Plug-In . SVG Version: 6.00 Build 0)  -->
<svg version="1.1" id="Layer_1" xmlns="http://www.w3.org/2000/svg" xmlns:xlink="http://www.w3.org/1999/xlink" x="0px" y="0px"
	 viewBox="0 0 32 32" style="enable-background:new 0 0 32 32;" xml:space="preserve">
<style type="text/css">
	.st0{fill:#4B8BC9;}
	.st1{fill:#FFFFFF;}
</style>
<g>
	<path class="st0" d="M31.67,11.41L30.5,5.26l-11.16,5.32l-3.02-9.29l-3.77,11.62H0.33l9.88,7.18l-0.58,1.79l-5.6,2.67l1.17,6.16
		l1.86-0.88l5.76-2.75l2.52-1.2l1.72-0.82l6.06-2.89l1.03-0.49l2.31-1.1l-1.74-2.14l-2.17-2.67l6-2.86L31.67,11.41z M23.97,18.97
		l1.04,1.28l-2.19,1.04L7.44,28.64l-1.57,0.75l-0.82-4.31l4.2-2l13-6.2L23.97,18.97z M13.44,19.1l-2.76-3.39l8.94-4.26l10.2-4.87
		l0.82,4.31l-4.22,2.01L13.44,19.1z"/>
	<polygon class="st1" points="25.01,20.25 22.83,21.3 7.44,28.64 5.87,29.39 5.05,25.07 9.25,23.07 22.25,16.87 23.97,18.97 	"/>
	<polygon class="st1" points="30.65,10.9 26.43,12.91 13.45,19.1 10.69,15.71 19.63,11.45 29.83,6.58 	"/>
</g>
</svg>
