<?xml version="1.0" encoding="utf-8"?>
<!-- Generator: Adobe Illustrator 27.0.0, SVG Export Plug-In . SVG Version: 6.00 Build 0)  -->
<svg version="1.1" id="Layer_1" xmlns="http://www.w3.org/2000/svg" xmlns:xlink="http://www.w3.org/1999/xlink" x="0px" y="0px"
	 viewBox="0 0 64 64" style="enable-background:new 0 0 64 64;" xml:space="preserve">
<style type="text/css">
	.st0{fill:#4B8BC9;}
	.st1{fill:#FFFFFF;}
</style>
<g>
	<path class="st0" d="M62.73,23l-2.29-12.08L38.56,21.36L32.63,3.14l-7.4,22.79H1.27l19.39,14.09l-1.14,3.52L8.52,48.78l2.29,12.08
		l3.64-1.73l11.3-5.39l4.95-2.36l3.37-1.61l11.88-5.67l2.02-0.96l4.53-2.16l-3.42-4.19l-4.26-5.23l11.77-5.62L62.73,23z
		 M47.64,37.83l2.05,2.51l-4.29,2.05l-30.18,14.4l-3.08,1.47l-1.61-8.46l8.23-3.93L44.27,33.7L47.64,37.83z M26.99,38.09l-5.41-6.65
		l17.54-8.36l20.02-9.55l1.61,8.46l-8.28,3.95L26.99,38.09z"/>
	<polygon class="st1" points="49.68,40.35 45.39,42.39 15.21,56.79 12.13,58.26 10.52,49.79 18.76,45.87 44.27,33.7 47.63,37.83 	
		"/>
	<polygon class="st1" points="60.73,21.99 52.45,25.94 26.99,38.08 21.57,31.44 39.11,23.07 59.13,13.53 	"/>
</g>
</svg>
