<?xml version="1.0" encoding="utf-8"?>
<!-- Generator: Adobe Illustrator 27.0.0, SVG Export Plug-In . SVG Version: 6.00 Build 0)  -->
<svg version="1.1" id="Layer_1" xmlns="http://www.w3.org/2000/svg" xmlns:xlink="http://www.w3.org/1999/xlink" x="0px" y="0px"
	 viewBox="0 0 1656.11 512" style="enable-background:new 0 0 1656.11 512;" xml:space="preserve">
<style type="text/css">
	.st0{fill:#FFFFFF;}
	.st1{fill:#231F20;}
	.st2{fill:#4B8BC9;}
</style>
<g>
	<path class="st0" d="M409.76,204.04l-13.21-69.76l-126.44,60.29l-34.2-105.25l-42.76,131.66H54.73l111.98,81.35l-6.59,20.31
		l-63.5,30.27l13.23,69.76l21.02-10.01l65.27-31.14l28.58-13.64l19.44-9.27l68.61-32.72l11.65-5.55l26.18-12.49l-19.75-24.21
		l-24.59-30.22l67.99-32.44L409.76,204.04z M311.83,276.54l10.72,13.15l11.83,14.51h-0.01l-24.79,11.83L135.24,399.2l-17.78,8.48
		v-0.01l-9.27-48.88l47.55-22.69h0.01l147.34-70.27L311.83,276.54z M203.3,291.14l-0.01,0.01l-21.58-26.5l-9.68-11.89h-0.01v-0.01
		l50.66-24.15l50.65-24.15l115.61-55.15l9.27,48.87h-0.01l-47.82,22.81L203.3,291.14z"/>
	<polygon class="st0" points="108.19,358.78 155.74,336.1 108.19,358.79 	"/>
	<polygon class="st0" points="303.09,265.82 303.09,265.83 155.75,336.1 	"/>
	<polygon class="st0" points="172.03,252.76 181.71,264.65 172.02,252.76 	"/>
	<polygon class="st0" points="388.94,149.3 273.33,204.45 222.68,228.6 273.33,204.44 	"/>
</g>
<g>
	<path class="st0" d="M596.47,339.07c-19.73,0-36.34-4.41-49.8-13.23c-13.47-8.82-22.96-20.82-28.46-36l33.58-19.64
		c7.78,20.3,23.05,30.45,45.82,30.45c11,0,19.07-1.99,24.19-5.98c5.12-3.98,7.69-9.01,7.69-15.08c0-7.02-3.13-12.47-9.39-16.36
		c-6.26-3.89-17.46-8.11-33.58-12.66c-8.92-2.66-16.46-5.31-22.63-7.97c-6.17-2.66-12.34-6.21-18.5-10.67
		c-6.17-4.46-10.86-10.1-14.09-16.93c-3.23-6.83-4.84-14.8-4.84-23.91c0-18.02,6.4-32.39,19.21-43.12
		c12.81-10.72,28.22-16.08,46.25-16.08c16.12,0,30.31,3.94,42.55,11.81c12.24,7.88,21.77,18.83,28.6,32.87l-33.01,19.07
		c-7.97-17.08-20.68-25.61-38.14-25.61c-8.16,0-14.56,1.85-19.21,5.55c-4.65,3.7-6.97,8.49-6.97,14.37c0,6.26,2.61,11.34,7.83,15.23
		c5.22,3.89,15.23,8.11,30.02,12.66c6.07,1.9,10.67,3.37,13.8,4.41c3.13,1.05,7.4,2.66,12.81,4.84c5.41,2.18,9.58,4.22,12.52,6.12
		c2.94,1.9,6.31,4.46,10.1,7.68c3.79,3.23,6.69,6.55,8.68,9.96c1.99,3.41,3.7,7.54,5.12,12.38c1.42,4.84,2.14,10.1,2.14,15.8
		c0,18.4-6.69,33.01-20.06,43.83C635.32,333.66,617.91,339.07,596.47,339.07z"/>
	<path class="st0" d="M817.89,317.3c-14.61,14.51-32.44,21.77-53.5,21.77c-21.06,0-38.85-7.26-53.36-21.77
		c-14.52-14.51-21.77-32.3-21.77-53.36s7.26-38.85,21.77-53.36c14.51-14.52,32.3-21.77,53.36-21.77c21.06,0,38.89,7.26,53.5,21.77
		c14.61,14.51,21.91,32.3,21.91,53.36S832.5,302.78,817.89,317.3z M736.92,292.11c7.3,7.4,16.46,11.1,27.47,11.1
		c11,0,20.21-3.7,27.6-11.1c7.4-7.4,11.1-16.79,11.1-28.18c0-11.38-3.7-20.78-11.1-28.18c-7.4-7.4-16.6-11.1-27.6-11.1
		c-11.01,0-20.16,3.7-27.47,11.1c-7.31,7.4-10.96,16.79-10.96,28.18C725.97,275.32,729.62,284.71,736.92,292.11z"/>
	<path class="st0" d="M948.52,188.8c19.16,0,35.53,7.26,49.09,21.77c13.56,14.51,20.35,32.3,20.35,53.36s-6.79,38.85-20.35,53.36
		c-13.57,14.51-29.93,21.77-49.09,21.77c-19.92,0-35.29-6.92-46.1-20.78V392H865.7V192.78h36.71v16.79
		C913.23,195.73,928.6,188.8,948.52,188.8z M913.52,292.82c7.4,7.5,16.79,11.24,28.18,11.24c11.38,0,20.82-3.74,28.32-11.24
		c7.49-7.49,11.24-17.12,11.24-28.89c0-11.76-3.75-21.39-11.24-28.89c-7.5-7.49-16.93-11.24-28.32-11.24
		c-11.38,0-20.77,3.75-28.18,11.24c-7.4,7.5-11.1,17.12-11.1,28.89C902.42,275.7,906.12,285.33,913.52,292.82z"/>
	<path class="st0" d="M1043.86,335.08V127.33h36.71v207.76H1043.86z"/>
	<path class="st0" d="M1222.3,192.78h36.71v142.3h-36.71v-16.79c-11.01,13.85-26.47,20.78-46.39,20.78
		c-18.98,0-35.25-7.26-48.81-21.77c-13.57-14.51-20.35-32.3-20.35-53.36s6.78-38.85,20.35-53.36
		c13.56-14.52,29.83-21.77,48.81-21.77c19.92,0,35.38,6.93,46.39,20.78V192.78z M1154.57,292.82c7.4,7.5,16.79,11.24,28.18,11.24
		c11.38,0,20.82-3.74,28.32-11.24c7.49-7.49,11.24-17.12,11.24-28.89c0-11.76-3.75-21.39-11.24-28.89
		c-7.5-7.49-16.94-11.24-28.32-11.24c-11.39,0-20.78,3.75-28.18,11.24c-7.4,7.5-11.1,17.12-11.1,28.89
		C1143.47,275.7,1147.17,285.33,1154.57,292.82z"/>
	<path class="st0" d="M1371.43,188.8c15.56,0,28.41,5.22,38.56,15.65c10.15,10.44,15.23,24.86,15.23,43.26v87.37h-36.71v-82.82
		c0-9.49-2.56-16.74-7.69-21.77c-5.12-5.03-11.95-7.54-20.49-7.54c-9.49,0-17.08,2.94-22.77,8.82c-5.69,5.88-8.54,14.71-8.54,26.47
		v76.84h-36.71v-142.3h36.71v15.94C1337.94,195.44,1352.08,188.8,1371.43,188.8z"/>
	<path class="st0" d="M1565.53,192.78h35.86v135.47c0,22.01-7.26,38.8-21.77,50.37c-14.52,11.57-32.02,17.36-52.51,17.36
		c-15.37,0-28.89-2.94-40.56-8.82c-11.67-5.88-20.63-14.51-26.9-25.9l31.31-17.93c7.21,13.28,19.64,19.92,37.28,19.92
		c11.57,0,20.68-3.04,27.32-9.11c6.64-6.07,9.96-14.71,9.96-25.9v-15.37c-10.82,14.42-26,21.63-45.54,21.63
		c-20.11,0-36.95-7.07-50.52-21.2c-13.57-14.13-20.35-31.35-20.35-51.65c0-20.11,6.83-37.28,20.49-51.51
		c13.66-14.23,30.45-21.34,50.37-21.34c19.54,0,34.72,7.21,45.54,21.63V192.78z M1497.08,289.69c7.49,7.31,17.03,10.96,28.6,10.96
		c11.57,0,21.11-3.65,28.6-10.96c7.49-7.3,11.24-16.65,11.24-28.03c0-11.19-3.75-20.44-11.24-27.75c-7.5-7.3-17.03-10.96-28.6-10.96
		c-11.57,0-21.11,3.66-28.6,10.96c-7.5,7.31-11.24,16.56-11.24,27.75C1485.84,273.04,1489.59,282.39,1497.08,289.69z"/>
</g>
</svg>
